# xmcd
#
# Track frame offsets:
# 150
# 15076
# 28306
# 43113
# 55272
# 69116
# 82913
# 95403
# 108423
# 122265
# 135079
# 149239
# 162830
# 176790
# 190205
# 202876
# 215308
# 226640
# 238310
# 250385
# 261233
# 275708
# 288692
# 298522
# 311781
# 323920
#
# Disc length: 4462 seconds
#
#
# Revision: 0
# Processed by: cddbd v1.5.2PL0 Copyright (c) Steve Scherf et al.
# Submitted via: FreeRIP 2.51 
#
DISCID=7c116c1a
DTITLE=T-Bone Walker - Strollin with bones
DYEAR=1900
DGENRE=Blues
TTITLE0=T Bone blues
TTITLE1=Mean old world
TTITLE2=I got a break
TTITLE3=Bobby sox blues
TTITLE4=Hard pain blues
TTITLE5=Call it stormy Monday
TTITLE6=Midnight blues
TTITLE7=Long skirt baby blues
TTITLE8=I'm waiting for your call
TTITLE9=Hypin woman blues
TTITLE10=Description blues
TTITLE11=T Bone shuffle
TTITLE12=Go back
TTITLE13=I'm still in love with you
TTITLE14=West side baby
TTITLE15=Glamour girl
TTITLE16=Strollin with blues
TTITLE17=The Hustle is on
TTITLE18=Tell me whats the reason
TTITLE19=I'm about to lose my mind
TTITLE20=Cold cold feeling
TTITLE21=Blue mood
TTITLE22=Party girl
TTITLE23=High society
TTITLE24=Railroad station blues
TTITLE25=Vida blue
EXTD=
EXTT0=
EXTT1=
EXTT2=
EXTT3=
EXTT4=
EXTT5=
EXTT6=
EXTT7=
EXTT8=
EXTT9=
EXTT10=
EXTT11=
EXTT12=
EXTT13=
EXTT14=
EXTT15=
EXTT16=
EXTT17=
EXTT18=
EXTT19=
EXTT20=
EXTT21=
EXTT22=
EXTT23=
EXTT24=
EXTT25=
PLAYORDER=
